<?xml version="1.0" standalone="no"?><svg xmlns:xlink="http://www.w3.org/1999/xlink" xmlns="http://www.w3.org/2000/svg" viewBox="0 0 1000 466.66312056737587" preserveAspectRatio="xMaxYMax slice"><g transform="scale(1.1820330969267139)"><rect x="0" y="0" width="846" height="394.8" fill="#f6aa28"/><rect x="0" y="0" width="56.4" height="56.4" fill="#f15d91"/><rect x="0" y="0" width="56.4" height="56.4" fill="#f59d39"/><rect x="56.4" y="0" width="56.4" height="56.4" fill="#f59643"/><rect x="56.4" y="0" width="56.4" height="56.4" fill="#f4573a"/><rect x="112.8" y="0" width="56.4" height="56.4" fill="#f3796a"/><path d="M 112.8 0 A 56.4 56.4 0 0 0 169.2 56.4 L 169.2 0" fill="#f59a3d"/><rect x="169.2" y="0" width="56.4" height="56.4" fill="#f57d32"/><polygon points="169.2,0 225.6,0 225.6,56.4" fill="#f5922d"/><rect x="225.6" y="0" width="56.4" height="56.4" fill="#f6a929"/><polygon points="225.6,0 282,56.4 225.6,56.4" fill="#f3815f"/><rect x="282" y="0" width="56.4" height="56.4" fill="#f6a62d"/><rect x="282" y="0" width="56.4" height="56.4" fill="#f27471"/><rect x="338.4" y="0" width="56.4" height="56.4" fill="#f59d3a"/><rect x="338.4" y="0" width="56.4" height="56.4" fill="#f69a2b"/><rect x="394.8" y="0" width="56.4" height="56.4" fill="#f3776d"/><rect x="394.8" y="0" width="56.4" height="56.4" fill="#f59545"/><rect x="451.2" y="0" width="56.4" height="56.4" fill="#f3473d"/><rect x="451.2" y="0" width="56.4" height="56.4" fill="#f4533b"/><rect x="507.6" y="0" width="56.4" height="56.4" fill="#f27274"/><polygon points="564,0 564,56.4 507.6,56.4" fill="#f26e7a"/><rect x="564" y="0" width="56.4" height="56.4" fill="#f5942d"/><path d="M 564 0 A 56.4 56.4 0 0 1  620.4 56.4 L 564 0 A 56.4 56.4 0 0 0 620.4 56.4" fill="#f47434"/><rect x="620.4" y="0" width="56.4" height="56.4" fill="#f3493d"/><path d="M 620.4 0 A 56.4 56.4 0 0 1 676.8 56.4 L 620.4 56.4" fill="#f58730"/><rect x="676.8" y="0" width="56.4" height="56.4" fill="#f58231"/><polygon points="676.8,0 733.1999999999999,0 733.1999999999999,56.4" fill="#f58a2f"/><rect x="733.2" y="0" width="56.4" height="56.4" fill="#f57e31"/><polygon points="733.2,0 789.6,56.4 733.2,56.4" fill="#f6a12a"/><rect x="789.6" y="0" width="56.4" height="56.4" fill="#f46637"/><polygon points="846,0 846,56.4 789.6,56.4" fill="#f48757"/><rect x="0" y="56.4" width="56.4" height="56.4" fill="#f46437"/><polygon points="56.4,56.4 56.4,112.8 0,112.8" fill="#f45a39"/><rect x="56.4" y="56.4" width="56.4" height="56.4" fill="#f3786d"/><path d="M 56.4 56.4 A 56.4 56.4 0 0 1  112.8 112.8 L 56.4 56.4 A 56.4 56.4 0 0 0 112.8 112.8" fill="#f6992c"/><rect x="112.8" y="56.4" width="56.4" height="56.4" fill="#f58b2f"/><rect x="112.8" y="56.4" width="56.4" height="56.4" fill="#f46b35"/><rect x="169.2" y="56.4" width="56.4" height="56.4" fill="#f1628a"/><path d="M 169.2 56.4 A 56.4 56.4 0 0 0 225.6 112.8 L 225.6 56.4" fill="#f46637"/><rect x="225.6" y="56.4" width="56.4" height="56.4" fill="#f58131"/><rect x="225.6" y="56.4" width="56.4" height="56.4" fill="#f5a233"/><rect x="282" y="56.4" width="56.4" height="56.4" fill="#f3825f"/><polygon points="282,56.4 338.4,112.8 282,112.8" fill="#f48757"/><rect x="338.4" y="56.4" width="56.4" height="56.4" fill="#f26881"/><path d="M 338.4 56.4 A 56.4 56.4 0 0 0 394.79999999999995 112.8 L 394.79999999999995 56.4" fill="#f27076"/><rect x="394.8" y="56.4" width="56.4" height="56.4" fill="#f052a0"/><polygon points="394.8,56.4 451.2,56.4 394.8,112.8" fill="#f15c92"/><rect x="451.2" y="56.4" width="56.4" height="56.4" fill="#f5962c"/><path d="M 451.2 112.8 A 56.4 56.4 0 0 1  507.59999999999997 56.4 L 451.2 112.8 A 56.4 56.4 0 0 0 507.59999999999997 56.4" fill="#f27373"/><rect x="507.6" y="56.4" width="56.4" height="56.4" fill="#f16684"/><polygon points="564,56.4 564,112.8 507.6,112.8" fill="#f57f31"/><rect x="564" y="56.4" width="56.4" height="56.4" fill="#f45f38"/><path d="M 564 112.8 A 56.4 56.4 0 0 1  620.4 56.4 L 564 112.8 A 56.4 56.4 0 0 0 620.4 56.4" fill="#f47434"/><rect x="620.4" y="56.4" width="56.4" height="56.4" fill="#f48f4d"/><rect x="620.4" y="56.4" width="56.4" height="56.4" fill="#f37f62"/><rect x="676.8" y="56.4" width="56.4" height="56.4" fill="#f16783"/><rect x="676.8" y="56.4" width="56.4" height="56.4" fill="#f34d3c"/><rect x="733.2" y="56.4" width="56.4" height="56.4" fill="#f27471"/><polygon points="789.6,56.4 789.6,112.8 733.2,112.8" fill="#f58430"/><rect x="789.6" y="56.4" width="56.4" height="56.4" fill="#f58b2f"/><rect x="789.6" y="56.4" width="56.4" height="56.4" fill="#f3825f"/><rect x="0" y="112.8" width="56.4" height="56.4" fill="#f37f63"/><rect x="0" y="112.8" width="56.4" height="56.4" fill="#f3413f"/><rect x="56.4" y="112.8" width="56.4" height="56.4" fill="#f26881"/><path d="M 56.4 169.2 A 56.4 56.4 0 0 1  112.8 112.8 L 112.8 169.2" fill="#f6a52e"/><rect x="112.8" y="112.8" width="56.4" height="56.4" fill="#f26b7d"/><polygon points="169.2,112.8 169.2,169.2 112.8,169.2" fill="#f59e39"/><rect x="169.2" y="112.8" width="56.4" height="56.4" fill="#f59d3a"/><polygon points="225.6,112.8 225.6,169.2 169.2,169.2" fill="#f26981"/><rect x="225.6" y="112.8" width="56.4" height="56.4" fill="#f46537"/><rect x="225.6" y="112.8" width="56.4" height="56.4" fill="#f3403f"/><rect x="282" y="112.8" width="56.4" height="56.4" fill="#f15a95"/><rect x="282" y="112.8" width="56.4" height="56.4" fill="#f3433e"/><rect x="338.4" y="112.8" width="56.4" height="56.4" fill="#f6a72b"/><polygon points="338.4,112.8 394.79999999999995,169.2 338.4,169.2" fill="#f57e32"/><rect x="394.8" y="112.8" width="56.4" height="56.4" fill="#f27176"/><path d="M 394.8 112.8 A 56.4 56.4 0 0 0 451.2 169.2 L 451.2 112.8" fill="#f46437"/><rect x="451.2" y="112.8" width="56.4" height="56.4" fill="#f34e3c"/><rect x="451.2" y="112.8" width="56.4" height="56.4" fill="#f3423e"/><rect x="507.6" y="112.8" width="56.4" height="56.4" fill="#f1618c"/><polygon points="507.6,112.8 564,169.2 507.6,169.2" fill="#f26a7f"/><rect x="564" y="112.8" width="56.4" height="56.4" fill="#f59544"/><path d="M 564 112.8 A 56.4 56.4 0 0 1  620.4 169.2 L 564 112.8 A 56.4 56.4 0 0 0 620.4 169.2" fill="#f5972c"/><rect x="620.4" y="112.8" width="56.4" height="56.4" fill="#f46c35"/><rect x="620.4" y="112.8" width="56.4" height="56.4" fill="#f6a430"/><rect x="676.8" y="112.8" width="56.4" height="56.4" fill="#f6a92a"/><rect x="676.8" y="112.8" width="56.4" height="56.4" fill="#f57b32"/><rect x="733.2" y="112.8" width="56.4" height="56.4" fill="#f45939"/><path d="M 733.2 169.2 A 56.4 56.4 0 0 1  789.6 112.8 L 733.2 169.2 A 56.4 56.4 0 0 0 789.6 112.8" fill="#f58c2e"/><rect x="789.6" y="112.8" width="56.4" height="56.4" fill="#f27373"/><rect x="789.6" y="112.8" width="56.4" height="56.4" fill="#f4914b"/><rect x="0" y="169.2" width="56.4" height="56.4" fill="#f15f8e"/><rect x="0" y="169.2" width="56.4" height="56.4" fill="#f45a39"/><rect x="56.4" y="169.2" width="56.4" height="56.4" fill="#f46f35"/><path d="M 56.4 169.2 A 56.4 56.4 0 0 1 112.8 225.6 L 56.4 225.6" fill="#f1628a"/><rect x="112.8" y="169.2" width="56.4" height="56.4" fill="#f26a7e"/><rect x="112.8" y="169.2" width="56.4" height="56.4" fill="#f59a3e"/><rect x="169.2" y="169.2" width="56.4" height="56.4" fill="#f3483d"/><rect x="169.2" y="169.2" width="56.4" height="56.4" fill="#f6a929"/><rect x="225.6" y="169.2" width="56.4" height="56.4" fill="#f59b3d"/><path d="M 225.6 169.2 A 56.4 56.4 0 0 1  282 225.6 L 225.6 169.2 A 56.4 56.4 0 0 0 282 225.6" fill="#f16488"/><rect x="282" y="169.2" width="56.4" height="56.4" fill="#f58430"/><polygon points="338.4,169.2 338.4,225.6 282,225.6" fill="#f27274"/><rect x="338.4" y="169.2" width="56.4" height="56.4" fill="#f5892f"/><polygon points="338.4,169.2 394.79999999999995,169.2 394.79999999999995,225.6" fill="#f3403f"/><rect x="394.8" y="169.2" width="56.4" height="56.4" fill="#f58d2e"/><polygon points="394.8,169.2 451.2,169.2 451.2,225.6" fill="#f45f38"/><rect x="451.2" y="169.2" width="56.4" height="56.4" fill="#f46b35"/><path d="M 451.2 169.2 A 56.4 56.4 0 0 1  507.59999999999997 225.6 L 451.2 169.2 A 56.4 56.4 0 0 0 507.59999999999997 225.6" fill="#f3786c"/><rect x="507.6" y="169.2" width="56.4" height="56.4" fill="#f34b3c"/><polygon points="507.6,169.2 564,169.2 507.6,225.6" fill="#f57f31"/><rect x="564" y="169.2" width="56.4" height="56.4" fill="#f46038"/><path d="M 564 225.6 A 56.4 56.4 0 0 0 620.4 169.2 L 564 169.2" fill="#f6a529"/><rect x="620.4" y="169.2" width="56.4" height="56.4" fill="#f48658"/><rect x="620.4" y="169.2" width="56.4" height="56.4" fill="#f45a39"/><rect x="676.8" y="169.2" width="56.4" height="56.4" fill="#f57d32"/><polygon points="733.1999999999999,169.2 733.1999999999999,225.6 676.8,225.6" fill="#f37e64"/><rect x="733.2" y="169.2" width="56.4" height="56.4" fill="#f58630"/><polygon points="733.2,169.2 789.6,169.2 733.2,225.6" fill="#f59d3a"/><rect x="789.6" y="169.2" width="56.4" height="56.4" fill="#f26b7d"/><path d="M 789.6 225.6 A 56.4 56.4 0 0 1  846 169.2 L 789.6 225.6 A 56.4 56.4 0 0 0 846 169.2" fill="#f26e79"/><rect x="0" y="225.6" width="56.4" height="56.4" fill="#f48e4e"/><polygon points="0,225.6 56.4,225.6 0,282" fill="#f3493d"/><rect x="56.4" y="225.6" width="56.4" height="56.4" fill="#f59b3c"/><rect x="56.4" y="225.6" width="56.4" height="56.4" fill="#f3433e"/><rect x="112.8" y="225.6" width="56.4" height="56.4" fill="#f59c3b"/><path d="M 112.8 282 A 56.4 56.4 0 0 1  169.2 225.6 L 112.8 282 A 56.4 56.4 0 0 0 169.2 225.6" fill="#f59840"/><rect x="169.2" y="225.6" width="56.4" height="56.4" fill="#f3815f"/><rect x="169.2" y="225.6" width="56.4" height="56.4" fill="#f48a53"/><rect x="225.6" y="225.6" width="56.4" height="56.4" fill="#f3403f"/><rect x="225.6" y="225.6" width="56.4" height="56.4" fill="#f26980"/><rect x="282" y="225.6" width="56.4" height="56.4" fill="#f34e3c"/><rect x="282" y="225.6" width="56.4" height="56.4" fill="#f34c3c"/><rect x="338.4" y="225.6" width="56.4" height="56.4" fill="#f6992c"/><polygon points="338.4,225.6 394.79999999999995,225.6 394.79999999999995,282" fill="#f3776d"/><rect x="394.8" y="225.6" width="56.4" height="56.4" fill="#f37b68"/><polygon points="451.2,225.6 451.2,282 394.8,282" fill="#f15d91"/><rect x="451.2" y="225.6" width="56.4" height="56.4" fill="#f4553a"/><rect x="451.2" y="225.6" width="56.4" height="56.4" fill="#f57933"/><rect x="507.6" y="225.6" width="56.4" height="56.4" fill="#f57833"/><rect x="507.6" y="225.6" width="56.4" height="56.4" fill="#f0549c"/><rect x="564" y="225.6" width="56.4" height="56.4" fill="#f6a331"/><polygon points="564,225.6 620.4,225.6 564,282" fill="#f59742"/><rect x="620.4" y="225.6" width="56.4" height="56.4" fill="#f46437"/><path d="M 620.4 225.6 A 56.4 56.4 0 0 0 676.8 282 L 676.8 225.6" fill="#f46337"/><rect x="676.8" y="225.6" width="56.4" height="56.4" fill="#f3463e"/><polygon points="676.8,225.6 733.1999999999999,225.6 733.1999999999999,282" fill="#f46736"/><rect x="733.2" y="225.6" width="56.4" height="56.4" fill="#f0549c"/><polygon points="789.6,225.6 789.6,282 733.2,282" fill="#f48856"/><rect x="789.6" y="225.6" width="56.4" height="56.4" fill="#f57b32"/><rect x="789.6" y="225.6" width="56.4" height="56.4" fill="#f3845c"/><rect x="0" y="282" width="56.4" height="56.4" fill="#f4904c"/><polygon points="0,282 56.4,282 56.4,338.4" fill="#f46d35"/><rect x="56.4" y="282" width="56.4" height="56.4" fill="#f47234"/><rect x="56.4" y="282" width="56.4" height="56.4" fill="#f57932"/><rect x="112.8" y="282" width="56.4" height="56.4" fill="#f58031"/><path d="M 112.8 282 A 56.4 56.4 0 0 0 169.2 338.4 L 169.2 282" fill="#f48d4f"/><rect x="169.2" y="282" width="56.4" height="56.4" fill="#f3443e"/><rect x="169.2" y="282" width="56.4" height="56.4" fill="#f59644"/><rect x="225.6" y="282" width="56.4" height="56.4" fill="#f59e38"/><polygon points="225.6,282 282,338.4 225.6,338.4" fill="#f27077"/><rect x="282" y="282" width="56.4" height="56.4" fill="#f26b7e"/><path d="M 282 282 A 56.4 56.4 0 0 1  338.4 338.4 L 282 282 A 56.4 56.4 0 0 0 338.4 338.4" fill="#f3825f"/><rect x="338.4" y="282" width="56.4" height="56.4" fill="#f4855a"/><path d="M 338.4 338.4 A 56.4 56.4 0 0 1  394.79999999999995 282 L 338.4 338.4 A 56.4 56.4 0 0 0 394.79999999999995 282" fill="#f59643"/><rect x="394.8" y="282" width="56.4" height="56.4" fill="#f34c3c"/><rect x="394.8" y="282" width="56.4" height="56.4" fill="#f46d35"/><rect x="451.2" y="282" width="56.4" height="56.4" fill="#f69e2b"/><rect x="451.2" y="282" width="56.4" height="56.4" fill="#f34b3c"/><rect x="507.6" y="282" width="56.4" height="56.4" fill="#f58630"/><path d="M 507.6 282 A 56.4 56.4 0 0 0 564 338.4 L 564 282" fill="#f45b39"/><rect x="564" y="282" width="56.4" height="56.4" fill="#f15b93"/><rect x="564" y="282" width="56.4" height="56.4" fill="#f5a035"/><rect x="620.4" y="282" width="56.4" height="56.4" fill="#f15f8e"/><polygon points="620.4,282 676.8,282 620.4,338.4" fill="#f1608d"/><rect x="676.8" y="282" width="56.4" height="56.4" fill="#f46a36"/><path d="M 676.8 282 A 56.4 56.4 0 0 1  733.1999999999999 338.4 L 676.8 282 A 56.4 56.4 0 0 0 733.1999999999999 338.4" fill="#f46f35"/><rect x="733.2" y="282" width="56.4" height="56.4" fill="#f58031"/><polygon points="733.2,282 789.6,282 733.2,338.4" fill="#f45f38"/><rect x="789.6" y="282" width="56.4" height="56.4" fill="#f5942d"/><polygon points="846,282 846,338.4 789.6,338.4" fill="#f59a3e"/><rect x="0" y="338.4" width="56.4" height="56.4" fill="#f58d2e"/><polygon points="0,338.4 56.4,338.4 56.4,394.79999999999995" fill="#f38160"/><rect x="56.4" y="338.4" width="56.4" height="56.4" fill="#f46a36"/><rect x="56.4" y="338.4" width="56.4" height="56.4" fill="#f27076"/><rect x="112.8" y="338.4" width="56.4" height="56.4" fill="#f46c35"/><path d="M 112.8 338.4 A 56.4 56.4 0 0 1  169.2 394.79999999999995 L 112.8 338.4 A 56.4 56.4 0 0 0 169.2 394.79999999999995" fill="#f4855a"/><rect x="169.2" y="338.4" width="56.4" height="56.4" fill="#f26d7b"/><path d="M 169.2 338.4 A 56.4 56.4 0 0 0 225.6 394.79999999999995 L 225.6 338.4" fill="#f4523b"/><rect x="225.6" y="338.4" width="56.4" height="56.4" fill="#f46237"/><path d="M 225.6 394.79999999999995 A 56.4 56.4 0 0 0 282 338.4 L 225.6 338.4" fill="#f46537"/><rect x="282" y="338.4" width="56.4" height="56.4" fill="#f3433e"/><path d="M 282 338.4 A 56.4 56.4 0 0 1 338.4 394.79999999999995 L 282 394.79999999999995" fill="#f57633"/><rect x="338.4" y="338.4" width="56.4" height="56.4" fill="#f4583a"/><rect x="338.4" y="338.4" width="56.4" height="56.4" fill="#f38160"/><rect x="394.8" y="338.4" width="56.4" height="56.4" fill="#f5a134"/><rect x="394.8" y="338.4" width="56.4" height="56.4" fill="#f37d65"/><rect x="451.2" y="338.4" width="56.4" height="56.4" fill="#f5952d"/><polygon points="507.59999999999997,338.4 507.59999999999997,394.79999999999995 451.2,394.79999999999995" fill="#f48c51"/><rect x="507.6" y="338.4" width="56.4" height="56.4" fill="#f4855a"/><polygon points="564,338.4 564,394.79999999999995 507.6,394.79999999999995" fill="#f46537"/><rect x="564" y="338.4" width="56.4" height="56.4" fill="#f5a035"/><path d="M 564 394.79999999999995 A 56.4 56.4 0 0 1  620.4 338.4 L 564 394.79999999999995 A 56.4 56.4 0 0 0 620.4 338.4" fill="#f49446"/><rect x="620.4" y="338.4" width="56.4" height="56.4" fill="#f26882"/><path d="M 620.4 394.79999999999995 A 56.4 56.4 0 0 1  676.8 338.4 L 676.8 394.79999999999995" fill="#f57b32"/><rect x="676.8" y="338.4" width="56.4" height="56.4" fill="#f16289"/><polygon points="676.8,338.4 733.1999999999999,338.4 733.1999999999999,394.79999999999995" fill="#f5892f"/><rect x="733.2" y="338.4" width="56.4" height="56.4" fill="#f1628a"/><path d="M 733.2 338.4 A 56.4 56.4 0 0 1  789.6 394.79999999999995 L 733.2 338.4 A 56.4 56.4 0 0 0 789.6 394.79999999999995" fill="#f34c3c"/><rect x="789.6" y="338.4" width="56.4" height="56.4" fill="#f26d7b"/><polygon points="789.6,338.4 846,394.79999999999995 789.6,394.79999999999995" fill="#f57d32"/></g></svg>